<svg xmlns="http://www.w3.org/2000/svg" version="1.1" xmlns:xlink="http://www.w3.org/1999/xlink" xmlns:svgjs="http://svgjs.dev/svgjs" width="1000" height="1000"><g clip-path="url(#SvgjsClipPath1188)"><rect width="1000" height="1000" fill="#000000"></rect><g transform="matrix(31.25,0,0,31.25,0,0)"><svg xmlns="http://www.w3.org/2000/svg" version="1.1" xmlns:xlink="http://www.w3.org/1999/xlink" xmlns:svgjs="http://svgjs.dev/svgjs" width="32" height="32"><svg width="32" height="32" viewBox="0 0 32 32" fill="none" xmlns="http://www.w3.org/2000/svg">
<g clip-path="url(#clip0_615_388)">
<g clip-path="url(#clip1_615_388)">
<rect width="32" height="32" fill="#1F1F1F"></rect>
<path d="M20.3076 13.3967H18.9139C18.7591 13.3967 18.6042 13.3264 18.4916 13.2139L17.9285 12.5813C17.7596 12.3985 17.4922 12.3844 17.2951 12.5391L17.2528 12.5813L16.7742 13.1296C16.6194 13.3123 16.3801 13.4107 16.1408 13.4107H8.52512C8.31396 14.0293 8.17319 14.6901 8.11688 15.3509H15.3243C15.451 15.3509 15.5777 15.2946 15.6621 15.2103L16.3378 14.5073C16.4223 14.423 16.5349 14.3668 16.6616 14.3668H16.6898C16.8165 14.3668 16.9432 14.423 17.0276 14.5214L17.5907 15.1541C17.7033 15.2806 17.8582 15.3509 18.013 15.3509H23.8831C23.8268 14.6901 23.686 14.0293 23.4749 13.4107H20.3076V13.3967ZM15.6903 17.277L15.1272 16.6443C14.9583 16.4615 14.6908 16.4475 14.4938 16.6021L14.4515 16.6443L13.9588 17.1926C13.804 17.3754 13.5788 17.4738 13.3394 17.4738H8.2295C8.35619 18.1486 8.58142 18.8094 8.87704 19.4421H12.4667C12.5934 19.4421 12.706 19.3858 12.8045 19.3015L13.4802 18.5985C13.5647 18.5142 13.6773 18.4579 13.804 18.4579H13.8321C13.9588 18.4579 14.0855 18.5142 14.17 18.6126L14.7331 19.2452C14.8457 19.3718 15.0005 19.4421 15.1554 19.4421H23.123C23.4186 18.8235 23.6438 18.1627 23.7705 17.4738H16.1126C15.9437 17.4738 15.7888 17.4035 15.6903 17.277ZM18.4494 11.1472L19.1251 10.4443C19.2095 10.3599 19.3222 10.3037 19.4489 10.3037H19.477C19.6037 10.3037 19.7304 10.3599 19.8149 10.4443L20.3779 11.0769C20.4906 11.2035 20.6454 11.2597 20.8002 11.2597H22.3206C19.6741 7.77308 14.7049 7.08419 11.1997 9.71322C10.6226 10.1491 10.1017 10.6692 9.65127 11.2597H18.1115C18.2523 11.2878 18.3649 11.2316 18.4494 11.1472ZM13.0016 21.3822C12.8327 21.3822 12.6778 21.3119 12.5793 21.1994L12.0162 20.5668C11.8473 20.384 11.5657 20.37 11.3827 20.5387L11.3546 20.5668L10.8619 21.1151C10.707 21.2978 10.4818 21.3963 10.2425 21.3963H10.2144C13.1846 24.5736 18.2101 24.7282 21.4056 21.7337C21.5323 21.6212 21.6449 21.4947 21.7716 21.3681H13.0016V21.3822Z" fill="white"></path>
</g>
</g>
<defs>
<clipPath id="clip0_615_388">
<rect width="32" height="32" fill="white"></rect>
</clipPath>
<clipPath id="clip1_615_388">
<rect width="32" height="32" fill="white"></rect>
</clipPath>
<clipPath id="SvgjsClipPath1188"><rect width="1000" height="1000" x="0" y="0" rx="500" ry="500"></rect></clipPath></defs>
</svg></svg></g></g></svg>